<svg width="15" height="15" viewBox="0 0 15 15" fill="none" xmlns="http://www.w3.org/2000/svg">
<path d="M5.2085 12.8005C5.09767 12.8005 4.98684 12.7597 4.89934 12.6722C4.73017 12.503 4.73017 12.223 4.89934 12.0538L8.70267 8.25049C8.98267 7.97049 8.98267 7.51549 8.70267 7.23549L4.89934 3.43216C4.73017 3.26299 4.73017 2.98299 4.89934 2.81383C5.0685 2.64466 5.3485 2.64466 5.51767 2.81383L9.321 6.61716C9.6185 6.91466 9.78767 7.31716 9.78767 7.74299C9.78767 8.16883 9.62434 8.57133 9.321 8.86883L5.51767 12.6722C5.43017 12.7538 5.31934 12.8005 5.2085 12.8005Z" fill="#000000"/>
</svg>
