<svg width="19" height="20" viewBox="0 0 19 20" fill="none" xmlns="http://www.w3.org/2000/svg">
<path fill-rule="evenodd" clip-rule="evenodd" d="M17.905 1.21836C18.3087 1.62209 18.3087 2.27666 17.905 2.68039L1.87383 18.7114C1.4701 19.1151 0.815528 19.1151 0.411802 18.7114C0.00807552 18.3076 0.00807811 17.6531 0.411808 17.2493L16.4429 1.21835C16.8467 0.814625 17.5012 0.814627 17.905 1.21836Z" fill="#899098"/>
<path fill-rule="evenodd" clip-rule="evenodd" d="M17.9048 18.7114C17.5011 19.1152 16.8465 19.1152 16.4428 18.7114L0.411755 2.68032C0.00802983 2.27659 0.00803183 1.62202 0.411761 1.21829C0.815491 0.814563 1.47006 0.814565 1.87379 1.21829L17.9048 17.2494C18.3085 17.6531 18.3085 18.3077 17.9048 18.7114Z" fill="#899098"/>
</svg>
