<svg width="25" height="25" viewBox="0 0 25 25" fill="none" xmlns="http://www.w3.org/2000/svg">
<path d="M7.29067 11.1979H5.20734C2.6865 11.1979 1.30109 9.81251 1.30109 7.29168V5.20834C1.30109 2.68751 2.6865 1.30209 5.20734 1.30209H7.29067C9.8115 1.30209 11.1969 2.68751 11.1969 5.20834V7.29168C11.1969 9.81251 9.8115 11.1979 7.29067 11.1979ZM5.20734 2.86459C3.5615 2.86459 2.86359 3.56251 2.86359 5.20834V7.29168C2.86359 8.93751 3.5615 9.63543 5.20734 9.63543H7.29067C8.9365 9.63543 9.63442 8.93751 9.63442 7.29168V5.20834C9.63442 3.56251 8.9365 2.86459 7.29067 2.86459H5.20734Z" fill="#ECEBFF"/>
<path d="M19.7907 11.1979H17.7073C15.1865 11.1979 13.8011 9.81251 13.8011 7.29168V5.20834C13.8011 2.68751 15.1865 1.30209 17.7073 1.30209H19.7907C22.3115 1.30209 23.6969 2.68751 23.6969 5.20834V7.29168C23.6969 9.81251 22.3115 11.1979 19.7907 11.1979ZM17.7073 2.86459C16.0615 2.86459 15.3636 3.56251 15.3636 5.20834V7.29168C15.3636 8.93751 16.0615 9.63543 17.7073 9.63543H19.7907C21.4365 9.63543 22.1344 8.93751 22.1344 7.29168V5.20834C22.1344 3.56251 21.4365 2.86459 19.7907 2.86459H17.7073Z" fill="#ECEBFF"/>
<path d="M19.7907 23.6979H17.7073C15.1865 23.6979 13.8011 22.3125 13.8011 19.7917V17.7083C13.8011 15.1875 15.1865 13.8021 17.7073 13.8021H19.7907C22.3115 13.8021 23.6969 15.1875 23.6969 17.7083V19.7917C23.6969 22.3125 22.3115 23.6979 19.7907 23.6979ZM17.7073 15.3646C16.0615 15.3646 15.3636 16.0625 15.3636 17.7083V19.7917C15.3636 21.4375 16.0615 22.1354 17.7073 22.1354H19.7907C21.4365 22.1354 22.1344 21.4375 22.1344 19.7917V17.7083C22.1344 16.0625 21.4365 15.3646 19.7907 15.3646H17.7073Z" fill="#ECEBFF"/>
<path d="M7.29067 23.6979H5.20734C2.6865 23.6979 1.30109 22.3125 1.30109 19.7917V17.7083C1.30109 15.1875 2.6865 13.8021 5.20734 13.8021H7.29067C9.8115 13.8021 11.1969 15.1875 11.1969 17.7083V19.7917C11.1969 22.3125 9.8115 23.6979 7.29067 23.6979ZM5.20734 15.3646C3.5615 15.3646 2.86359 16.0625 2.86359 17.7083V19.7917C2.86359 21.4375 3.5615 22.1354 5.20734 22.1354H7.29067C8.9365 22.1354 9.63442 21.4375 9.63442 19.7917V17.7083C9.63442 16.0625 8.9365 15.3646 7.29067 15.3646H5.20734Z" fill="#ECEBFF"/>
</svg>
