<svg width="162" height="227" viewBox="0 0 162 227" fill="none" xmlns="http://www.w3.org/2000/svg">
<rect x="0.642792" y="0.702576" width="160.773" height="225.638" fill="#331F1F"/>
<path d="M67.3047 118.157L26.7232 127.574C25.3895 127.89 24.2554 126.526 24.8038 125.239L35.3854 100.445C35.6471 99.8269 36.2578 99.423 36.9309 99.423H66.9183C67.8531 99.423 68.6009 100.18 68.6009 101.127V116.503C68.6134 117.286 68.065 117.98 67.3047 118.157Z" fill="#CC3232"/>
<path d="M43.8731 107.098V105.495C43.8731 104.876 43.761 104.359 43.0879 104.359C42.4274 104.359 42.3276 104.876 42.3276 105.495V108.537C42.9508 108.02 43.5242 107.692 44.3966 107.692C45.7551 107.692 46.8395 108.537 46.8395 110.178V112.324C46.8395 114.773 44.9201 115.645 43.2998 115.645C40.8195 115.645 39.3862 114.559 39.3862 112.021V105.394C39.3862 103.235 41.3306 102.289 43.2375 102.289C45.5682 102.289 46.8519 103.286 46.8519 105.482V107.086H43.8731V107.098ZM42.3276 110.759V113.031C42.3276 113.334 42.5769 113.587 43.1253 113.587C43.6239 113.587 43.8731 113.334 43.8731 112.994V110.683C43.8731 110.305 43.6737 110.04 43.1752 110.04C42.6268 110.04 42.3276 110.343 42.3276 110.759Z" fill="black"/>
<path d="M52.1365 107.098V105.495C52.1365 104.876 52.0243 104.359 51.3513 104.359C50.6907 104.359 50.591 104.876 50.591 105.495V108.537C51.2142 108.02 51.7875 107.692 52.66 107.692C54.0185 107.692 55.1028 108.537 55.1028 110.178V112.324C55.1028 114.773 53.1834 115.645 51.5632 115.645C49.0829 115.645 47.6496 114.559 47.6496 112.021V105.394C47.6496 103.235 49.5939 102.289 51.5009 102.289C53.8316 102.289 55.1153 103.286 55.1153 105.482V107.086H52.1365V107.098ZM50.591 110.759V113.031C50.591 113.334 50.8403 113.587 51.3887 113.587C51.8872 113.587 52.1365 113.334 52.1365 112.994V110.683C52.1365 110.305 51.9371 110.04 51.4385 110.04C50.8901 110.04 50.591 110.343 50.591 110.759Z" fill="black"/>
<path d="M60.3999 107.098V105.495C60.3999 104.876 60.2877 104.359 59.6147 104.359C58.9541 104.359 58.8544 104.876 58.8544 105.495V108.537C59.4776 108.02 60.0509 107.692 60.9233 107.692C62.2819 107.692 63.3662 108.537 63.3662 110.178V112.324C63.3662 114.773 61.4468 115.645 59.8265 115.645C57.3463 115.645 55.913 114.559 55.913 112.021V105.394C55.913 103.235 57.8573 102.289 59.7642 102.289C62.0949 102.289 63.3787 103.286 63.3787 105.482V107.086H60.3999V107.098ZM58.8544 110.759V113.031C58.8544 113.334 59.1037 113.587 59.6521 113.587C60.1506 113.587 60.3999 113.334 60.3999 112.994V110.683C60.3999 110.305 60.2004 110.04 59.7019 110.04C59.1535 110.04 58.8544 110.343 58.8544 110.759Z" fill="black"/>
<path d="M76.2171 121.808H72.1735V99.8607H79.5971L81.7269 115.461H81.7886L83.9185 99.8607H91.2032V121.824H86.6348V103.065H86.5731L83.6561 121.824H79.2112L76.2788 103.065H76.2171V121.808Z" fill="white"/>
<path d="M105.294 115.837C105.294 120.87 102.254 122.246 98.9046 122.246C95.5555 122.246 92.515 120.854 92.515 115.837V105.832C92.515 100.799 95.5555 99.423 98.9046 99.423C102.254 99.423 105.294 100.814 105.294 105.832V115.837ZM97.5619 117.009C97.5619 117.9 97.8397 118.728 98.9046 118.728C99.9695 118.728 100.247 117.9 100.247 117.009V104.66C100.247 103.769 99.9695 102.94 98.9046 102.94C97.8397 102.94 97.5619 103.769 97.5619 104.66V117.009Z" fill="white"/>
<path d="M106.205 99.8607H111.622L112.841 116.79H112.903L115.11 99.8607H119.833L116.206 121.824H109.569L106.205 99.8607Z" fill="white"/>
<path d="M120.681 121.808V99.8607H125.744V121.824H120.681V121.808Z" fill="white"/>
<path d="M126.917 121.808V99.8607H137.396V103.19H131.979V108.005H137.211V111.335H131.979V118.494H137.396V121.824H126.917V121.808Z" fill="white"/>
<path d="M24.4133 18V8.822H26.4543V18H24.4133ZM28.0399 18V11.682H30.0289V18H28.0399ZM32.0829 18V14.308C32.0829 13.9873 31.9833 13.7403 31.7839 13.567C31.5933 13.385 31.3549 13.294 31.0689 13.294C30.8696 13.294 30.6919 13.3373 30.5359 13.424C30.3799 13.502 30.2543 13.6147 30.1589 13.762C30.0723 13.9093 30.0289 14.0913 30.0289 14.308L29.2619 13.97C29.2619 13.4673 29.3703 13.0383 29.5869 12.683C29.8036 12.319 30.0983 12.0417 30.4709 11.851C30.8436 11.6517 31.2639 11.552 31.7319 11.552C32.1739 11.552 32.5683 11.6517 32.9149 11.851C33.2703 12.0503 33.5519 12.3277 33.7599 12.683C33.9679 13.0383 34.0719 13.463 34.0719 13.957V18H32.0829ZM36.1259 18V14.308C36.1259 13.9873 36.0263 13.7403 35.8269 13.567C35.6363 13.385 35.3979 13.294 35.1119 13.294C34.9126 13.294 34.7349 13.3373 34.5789 13.424C34.4229 13.502 34.2973 13.6147 34.2019 13.762C34.1153 13.9093 34.0719 14.0913 34.0719 14.308L32.9279 14.152C32.9453 13.6147 33.0709 13.1553 33.3049 12.774C33.5476 12.384 33.8639 12.085 34.2539 11.877C34.6526 11.6603 35.0989 11.552 35.5929 11.552C36.0783 11.552 36.5073 11.656 36.8799 11.864C37.2613 12.0633 37.5603 12.3537 37.7769 12.735C38.0023 13.1077 38.1149 13.5583 38.1149 14.087V18H36.1259ZM42.0285 18.13C41.4479 18.13 40.9279 17.987 40.4685 17.701C40.0179 17.415 39.6582 17.025 39.3895 16.531C39.1295 16.037 38.9995 15.4737 38.9995 14.841C38.9995 14.2083 39.1295 13.645 39.3895 13.151C39.6582 12.657 40.0179 12.267 40.4685 11.981C40.9279 11.695 41.4479 11.552 42.0285 11.552C42.4532 11.552 42.8345 11.6343 43.1725 11.799C43.5192 11.9637 43.8009 12.1933 44.0175 12.488C44.2342 12.774 44.3555 13.1033 44.3815 13.476V16.206C44.3555 16.5787 44.2342 16.9123 44.0175 17.207C43.8095 17.493 43.5322 17.7183 43.1855 17.883C42.8389 18.0477 42.4532 18.13 42.0285 18.13ZM42.4315 16.336C42.8562 16.336 43.1985 16.1973 43.4585 15.92C43.7185 15.634 43.8485 15.2743 43.8485 14.841C43.8485 14.5463 43.7879 14.2863 43.6665 14.061C43.5539 13.8357 43.3892 13.6623 43.1725 13.541C42.9645 13.411 42.7219 13.346 42.4445 13.346C42.1672 13.346 41.9202 13.411 41.7035 13.541C41.4955 13.6623 41.3265 13.8357 41.1965 14.061C41.0752 14.2863 41.0145 14.5463 41.0145 14.841C41.0145 15.127 41.0752 15.3827 41.1965 15.608C41.3179 15.8333 41.4869 16.011 41.7035 16.141C41.9202 16.271 42.1629 16.336 42.4315 16.336ZM43.7705 18V16.297L44.0695 14.763L43.7705 13.229V11.682H45.7205V18H43.7705ZM49.799 20.834C49.1056 20.834 48.4946 20.7127 47.966 20.47C47.446 20.236 47.0343 19.9023 46.731 19.469L47.953 18.247C48.1783 18.5157 48.4296 18.7193 48.707 18.858C48.993 18.9967 49.3353 19.066 49.734 19.066C50.228 19.066 50.6136 18.9447 50.891 18.702C51.177 18.4593 51.32 18.117 51.32 17.675V16.063L51.658 14.685L51.359 13.307V11.682H53.309V17.623C53.309 18.273 53.1573 18.8363 52.854 19.313C52.5506 19.7897 52.1346 20.1623 51.606 20.431C51.0773 20.6997 50.475 20.834 49.799 20.834ZM49.708 17.805C49.1273 17.805 48.6116 17.6663 48.161 17.389C47.7103 17.1117 47.355 16.7347 47.095 16.258C46.835 15.7813 46.705 15.2527 46.705 14.672C46.705 14.0827 46.835 13.554 47.095 13.086C47.355 12.6093 47.7103 12.2367 48.161 11.968C48.6116 11.6907 49.1273 11.552 49.708 11.552C50.1413 11.552 50.527 11.6343 50.865 11.799C51.2116 11.955 51.489 12.1803 51.697 12.475C51.9136 12.761 52.035 13.0947 52.061 13.476V15.881C52.035 16.2537 51.9136 16.5873 51.697 16.882C51.489 17.168 51.2116 17.3933 50.865 17.558C50.5183 17.7227 50.1326 17.805 49.708 17.805ZM50.085 16.037C50.3623 16.037 50.6006 15.9763 50.8 15.855C51.008 15.7337 51.164 15.5733 51.268 15.374C51.3806 15.166 51.437 14.932 51.437 14.672C51.437 14.412 51.3806 14.178 51.268 13.97C51.164 13.762 51.008 13.5973 50.8 13.476C50.6006 13.3547 50.3623 13.294 50.085 13.294C49.8163 13.294 49.578 13.3547 49.37 13.476C49.162 13.5973 49.0016 13.762 48.889 13.97C48.7763 14.178 48.72 14.412 48.72 14.672C48.72 14.9147 48.7763 15.1443 48.889 15.361C49.0016 15.569 49.1576 15.7337 49.357 15.855C49.565 15.9763 49.8076 16.037 50.085 16.037ZM57.8328 18.143C57.1481 18.143 56.5371 18.0043 55.9998 17.727C55.4711 17.441 55.0551 17.0467 54.7518 16.544C54.4484 16.0413 54.2968 15.4737 54.2968 14.841C54.2968 14.2083 54.4441 13.645 54.7388 13.151C55.0421 12.6483 55.4494 12.254 55.9608 11.968C56.4721 11.682 57.0484 11.539 57.6898 11.539C58.3138 11.539 58.8641 11.6733 59.3408 11.942C59.8174 12.2107 60.1901 12.5833 60.4588 13.06C60.7361 13.5367 60.8748 14.0827 60.8748 14.698C60.8748 14.8107 60.8661 14.932 60.8488 15.062C60.8401 15.1833 60.8184 15.3263 60.7838 15.491L55.3368 15.504V14.139L59.9388 14.126L59.0808 14.698C59.0721 14.334 59.0158 14.035 58.9118 13.801C58.8078 13.5583 58.6518 13.3763 58.4438 13.255C58.2444 13.125 57.9974 13.06 57.7028 13.06C57.3908 13.06 57.1178 13.1337 56.8838 13.281C56.6584 13.4197 56.4808 13.619 56.3508 13.879C56.2294 14.139 56.1688 14.4553 56.1688 14.828C56.1688 15.2007 56.2338 15.5213 56.3638 15.79C56.5024 16.05 56.6931 16.2537 56.9358 16.401C57.1871 16.5397 57.4818 16.609 57.8198 16.609C58.1318 16.609 58.4134 16.557 58.6648 16.453C58.9161 16.3403 59.1371 16.1757 59.3278 15.959L60.4198 17.051C60.1078 17.415 59.7308 17.688 59.2888 17.87C58.8468 18.052 58.3614 18.143 57.8328 18.143ZM64.3104 18V11.682H66.2994V18H64.3104ZM65.3114 10.811C64.9994 10.811 64.7394 10.707 64.5314 10.499C64.3321 10.2823 64.2324 10.0223 64.2324 9.719C64.2324 9.407 64.3321 9.147 64.5314 8.939C64.7394 8.731 64.9994 8.627 65.3114 8.627C65.6234 8.627 65.8791 8.731 66.0784 8.939C66.2778 9.147 66.3774 9.407 66.3774 9.719C66.3774 10.0223 66.2778 10.2823 66.0784 10.499C65.8791 10.707 65.6234 10.811 65.3114 10.811ZM71.8731 18V14.399C71.8731 14.0697 71.7691 13.8053 71.5611 13.606C71.3617 13.398 71.1061 13.294 70.7941 13.294C70.5774 13.294 70.3867 13.3417 70.2221 13.437C70.0574 13.5237 69.9274 13.6537 69.8321 13.827C69.7367 13.9917 69.6891 14.1823 69.6891 14.399L68.9221 14.022C68.9221 13.528 69.0304 13.0947 69.2471 12.722C69.4637 12.3493 69.7627 12.0633 70.1441 11.864C70.5341 11.656 70.9717 11.552 71.4571 11.552C71.9251 11.552 72.3367 11.6647 72.6921 11.89C73.0561 12.1067 73.3421 12.397 73.5501 12.761C73.7581 13.125 73.8621 13.5237 73.8621 13.957V18H71.8731ZM67.7001 18V11.682H69.6891V18H67.7001ZM75.9604 18V9.069H77.9494V18H75.9604ZM74.5304 13.372V11.682H79.3794V13.372H74.5304ZM80.2557 18V11.682H82.2447V18H80.2557ZM82.2447 14.529L81.4127 13.879C81.5774 13.1423 81.8547 12.5703 82.2447 12.163C82.6347 11.7557 83.1764 11.552 83.8697 11.552C84.1731 11.552 84.4374 11.5997 84.6627 11.695C84.8967 11.7817 85.1004 11.9203 85.2737 12.111L84.0907 13.606C84.0041 13.5107 83.8957 13.437 83.7657 13.385C83.6357 13.333 83.4884 13.307 83.3237 13.307C82.9944 13.307 82.7301 13.411 82.5307 13.619C82.3401 13.8183 82.2447 14.1217 82.2447 14.529ZM88.6679 18.143C88.0179 18.143 87.4285 18 86.8999 17.714C86.3799 17.4193 85.9682 17.0207 85.6649 16.518C85.3615 16.0153 85.2099 15.452 85.2099 14.828C85.2099 14.204 85.3615 13.645 85.6649 13.151C85.9682 12.657 86.3799 12.267 86.8999 11.981C87.4199 11.6863 88.0092 11.539 88.6679 11.539C89.3265 11.539 89.9159 11.682 90.4359 11.968C90.9559 12.254 91.3675 12.6483 91.6709 13.151C91.9742 13.645 92.1259 14.204 92.1259 14.828C92.1259 15.452 91.9742 16.0153 91.6709 16.518C91.3675 17.0207 90.9559 17.4193 90.4359 17.714C89.9159 18 89.3265 18.143 88.6679 18.143ZM88.6679 16.336C88.9539 16.336 89.2052 16.2753 89.4219 16.154C89.6385 16.024 89.8032 15.8463 89.9159 15.621C90.0372 15.387 90.0979 15.1227 90.0979 14.828C90.0979 14.5333 90.0372 14.2777 89.9159 14.061C89.7945 13.8357 89.6255 13.6623 89.4089 13.541C89.2009 13.411 88.9539 13.346 88.6679 13.346C88.3905 13.346 88.1435 13.411 87.9269 13.541C87.7102 13.6623 87.5412 13.8357 87.4199 14.061C87.2985 14.2863 87.2379 14.5463 87.2379 14.841C87.2379 15.127 87.2985 15.387 87.4199 15.621C87.5412 15.8463 87.7102 16.024 87.9269 16.154C88.1435 16.2753 88.3905 16.336 88.6679 16.336ZM95.9241 18.143C95.3434 18.143 94.8278 18.026 94.3771 17.792C93.9351 17.5493 93.5884 17.22 93.3371 16.804C93.0858 16.3793 92.9601 15.894 92.9601 15.348V11.682H94.9491V15.322C94.9491 15.5387 94.9838 15.725 95.0531 15.881C95.1311 16.037 95.2438 16.1583 95.3911 16.245C95.5384 16.3317 95.7161 16.375 95.9241 16.375C96.2188 16.375 96.4528 16.284 96.6261 16.102C96.7994 15.9113 96.8861 15.6513 96.8861 15.322V11.682H98.8751V15.335C98.8751 15.8897 98.7494 16.3793 98.4981 16.804C98.2468 17.22 97.9001 17.5493 97.4581 17.792C97.0161 18.026 96.5048 18.143 95.9241 18.143ZM102.113 18L99.4349 11.682H101.58L103.4 16.947H102.464L104.284 11.682H106.39L103.712 17.987L102.113 18ZM109.58 18.13C109 18.13 108.48 17.987 108.02 17.701C107.57 17.415 107.21 17.025 106.941 16.531C106.681 16.037 106.551 15.4737 106.551 14.841C106.551 14.2083 106.681 13.645 106.941 13.151C107.21 12.657 107.57 12.267 108.02 11.981C108.48 11.695 109 11.552 109.58 11.552C110.005 11.552 110.386 11.6343 110.724 11.799C111.071 11.9637 111.353 12.1933 111.569 12.488C111.786 12.774 111.907 13.1033 111.933 13.476V16.206C111.907 16.5787 111.786 16.9123 111.569 17.207C111.361 17.493 111.084 17.7183 110.737 17.883C110.391 18.0477 110.005 18.13 109.58 18.13ZM109.983 16.336C110.408 16.336 110.75 16.1973 111.01 15.92C111.27 15.634 111.4 15.2743 111.4 14.841C111.4 14.5463 111.34 14.2863 111.218 14.061C111.106 13.8357 110.941 13.6623 110.724 13.541C110.516 13.411 110.274 13.346 109.996 13.346C109.719 13.346 109.472 13.411 109.255 13.541C109.047 13.6623 108.878 13.8357 108.748 14.061C108.627 14.2863 108.566 14.5463 108.566 14.841C108.566 15.127 108.627 15.3827 108.748 15.608C108.87 15.8333 109.039 16.011 109.255 16.141C109.472 16.271 109.715 16.336 109.983 16.336ZM111.322 18V16.297L111.621 14.763L111.322 13.229V11.682H113.272V18H111.322ZM118.313 18.13C117.888 18.13 117.498 18.0433 117.143 17.87C116.787 17.688 116.497 17.4497 116.272 17.155C116.046 16.8517 115.916 16.5137 115.882 16.141V13.476C115.916 13.1033 116.046 12.774 116.272 12.488C116.497 12.1933 116.787 11.9637 117.143 11.799C117.498 11.6343 117.888 11.552 118.313 11.552C118.911 11.552 119.439 11.695 119.899 11.981C120.367 12.267 120.731 12.657 120.991 13.151C121.259 13.645 121.394 14.2083 121.394 14.841C121.394 15.4737 121.259 16.037 120.991 16.531C120.731 17.025 120.367 17.415 119.899 17.701C119.439 17.987 118.911 18.13 118.313 18.13ZM117.962 16.336C118.239 16.336 118.482 16.271 118.69 16.141C118.906 16.011 119.075 15.8333 119.197 15.608C119.318 15.3827 119.379 15.127 119.379 14.841C119.379 14.5463 119.318 14.2863 119.197 14.061C119.075 13.8357 118.906 13.6623 118.69 13.541C118.482 13.411 118.239 13.346 117.962 13.346C117.684 13.346 117.437 13.411 117.221 13.541C117.004 13.6623 116.835 13.8357 116.714 14.061C116.601 14.2863 116.545 14.5463 116.545 14.841C116.545 15.1357 116.605 15.3957 116.727 15.621C116.848 15.8463 117.013 16.024 117.221 16.154C117.437 16.2753 117.684 16.336 117.962 16.336ZM114.673 18V8.562H116.662V13.229L116.337 14.763L116.636 16.297V18H114.673ZM122.404 18V8.562H124.393V18H122.404ZM128.914 18.143C128.229 18.143 127.618 18.0043 127.081 17.727C126.552 17.441 126.136 17.0467 125.833 16.544C125.529 16.0413 125.378 15.4737 125.378 14.841C125.378 14.2083 125.525 13.645 125.82 13.151C126.123 12.6483 126.53 12.254 127.042 11.968C127.553 11.682 128.129 11.539 128.771 11.539C129.395 11.539 129.945 11.6733 130.422 11.942C130.898 12.2107 131.271 12.5833 131.54 13.06C131.817 13.5367 131.956 14.0827 131.956 14.698C131.956 14.8107 131.947 14.932 131.93 15.062C131.921 15.1833 131.899 15.3263 131.865 15.491L126.418 15.504V14.139L131.02 14.126L130.162 14.698C130.153 14.334 130.097 14.035 129.993 13.801C129.889 13.5583 129.733 13.3763 129.525 13.255C129.325 13.125 129.078 13.06 128.784 13.06C128.472 13.06 128.199 13.1337 127.965 13.281C127.739 13.4197 127.562 13.619 127.432 13.879C127.31 14.139 127.25 14.4553 127.25 14.828C127.25 15.2007 127.315 15.5213 127.445 15.79C127.583 16.05 127.774 16.2537 128.017 16.401C128.268 16.5397 128.563 16.609 128.901 16.609C129.213 16.609 129.494 16.557 129.746 16.453C129.997 16.3403 130.218 16.1757 130.409 15.959L131.501 17.051C131.189 17.415 130.812 17.688 130.37 17.87C129.928 18.052 129.442 18.143 128.914 18.143ZM135.781 14.646L135.456 8.562H137.601L137.276 14.646H135.781ZM136.522 18.143C136.184 18.143 135.903 18.026 135.677 17.792C135.452 17.558 135.339 17.2763 135.339 16.947C135.339 16.6003 135.452 16.3143 135.677 16.089C135.903 15.855 136.184 15.738 136.522 15.738C136.869 15.738 137.151 15.855 137.367 16.089C137.593 16.3143 137.705 16.6003 137.705 16.947C137.705 17.2763 137.593 17.558 137.367 17.792C137.151 18.026 136.869 18.143 136.522 18.143Z" fill="#ECEBFF"/>
</svg>
