<svg width="45" height="30" viewBox="0 0 45 30" fill="none" xmlns="http://www.w3.org/2000/svg">
<path d="M43.1579 19.6333L2.57637 29.0506C1.24276 29.3662 0.10857 28.0028 0.656969 26.7152L11.2386 1.92212C11.5003 1.30356 12.111 0.899597 12.7841 0.899597H42.7715C43.7063 0.899597 44.4541 1.65702 44.4541 2.6038V17.9795C44.4666 18.7622 43.9182 19.4565 43.1579 19.6333Z" fill="#CC3232"/>
<path d="M19.7263 8.57485V6.97163C19.7263 6.35307 19.6142 5.83549 18.9411 5.83549C18.2806 5.83549 18.1809 6.35307 18.1809 6.97163V10.014C18.804 9.49638 19.3774 9.16817 20.2498 9.16817C21.6083 9.16817 22.6927 10.014 22.6927 11.655V13.8011C22.6927 16.2501 20.7733 17.1211 19.153 17.1211C16.6728 17.1211 15.2394 16.0355 15.2394 13.4981V6.87064C15.2394 4.71198 17.1838 3.7652 19.0907 3.7652C21.4214 3.7652 22.7051 4.76247 22.7051 6.95901V8.56223H19.7263V8.57485ZM18.1809 12.2357V14.508C18.1809 14.811 18.4301 15.0635 18.9785 15.0635C19.4771 15.0635 19.7263 14.811 19.7263 14.4701V12.16C19.7263 11.7813 19.5269 11.5162 19.0284 11.5162C18.48 11.5162 18.1809 11.8192 18.1809 12.2357Z" fill="black"/>
<path d="M27.9897 8.57485V6.97163C27.9897 6.35307 27.8775 5.83549 27.2045 5.83549C26.5439 5.83549 26.4442 6.35307 26.4442 6.97163V10.014C27.0674 9.49638 27.6407 9.16817 28.5132 9.16817C29.8717 9.16817 30.9561 10.014 30.9561 11.655V13.8011C30.9561 16.2501 29.0367 17.1211 27.4164 17.1211C24.9361 17.1211 23.5028 16.0355 23.5028 13.4981V6.87064C23.5028 4.71198 25.4471 3.7652 27.3541 3.7652C29.6848 3.7652 30.9685 4.76247 30.9685 6.95901V8.56223H27.9897V8.57485ZM26.4442 12.2357V14.508C26.4442 14.811 26.6935 15.0635 27.2419 15.0635C27.7404 15.0635 27.9897 14.811 27.9897 14.4701V12.16C27.9897 11.7813 27.7903 11.5162 27.2917 11.5162C26.7433 11.5162 26.4442 11.8192 26.4442 12.2357Z" fill="black"/>
<path d="M36.2531 8.57485V6.97163C36.2531 6.35307 36.1409 5.83549 35.4679 5.83549C34.8073 5.83549 34.7076 6.35307 34.7076 6.97163V10.014C35.3308 9.49638 35.9041 9.16817 36.7765 9.16817C38.1351 9.16817 39.2194 10.014 39.2194 11.655V13.8011C39.2194 16.2501 37.3 17.1211 35.6798 17.1211C33.1995 17.1211 31.7662 16.0355 31.7662 13.4981V6.87064C31.7662 4.71198 33.7105 3.7652 35.6174 3.7652C37.9481 3.7652 39.2319 4.76247 39.2319 6.95901V8.56223H36.2531V8.57485ZM34.7076 12.2357V14.508C34.7076 14.811 34.9569 15.0635 35.5053 15.0635C36.0038 15.0635 36.2531 14.811 36.2531 14.4701V12.16C36.2531 11.7813 36.0537 11.5162 35.5551 11.5162C35.0067 11.5162 34.7076 11.8192 34.7076 12.2357Z" fill="black"/>
</svg>
