<svg width="17" height="17" viewBox="0 0 17 17" fill="none" xmlns="http://www.w3.org/2000/svg">
<path d="M10.3966 15.0896H10.31C7.34996 15.0896 5.92329 13.923 5.67662 11.3096C5.64996 11.0363 5.84996 10.7896 6.12996 10.763C6.39662 10.7363 6.64996 10.943 6.67662 11.2163C6.86996 13.3096 7.85662 14.0896 10.3166 14.0896H10.4033C13.1166 14.0896 14.0766 13.1296 14.0766 10.4163V6.06963C14.0766 3.3563 13.1166 2.3963 10.4033 2.3963H10.3166C7.84329 2.3963 6.85662 3.18963 6.67662 5.32297C6.64329 5.5963 6.40996 5.80297 6.12996 5.7763C5.84996 5.7563 5.64996 5.50963 5.66996 5.2363C5.89662 2.58297 7.32996 1.3963 10.31 1.3963H10.3966C13.67 1.3963 15.07 2.7963 15.07 6.06963V10.4163C15.07 13.6896 13.67 15.0896 10.3966 15.0896Z" fill="#000000"/>
<path d="M10.2366 8.74298H2.6499C2.37657 8.74298 2.1499 8.51631 2.1499 8.24298C2.1499 7.96965 2.37657 7.74298 2.6499 7.74298H10.2366C10.5099 7.74298 10.7366 7.96965 10.7366 8.24298C10.7366 8.51631 10.5099 8.74298 10.2366 8.74298Z" fill="#000000"/>
<path d="M4.13657 10.9763C4.00991 10.9763 3.88324 10.9297 3.78324 10.8297L1.54991 8.59632C1.35657 8.40299 1.35657 8.08299 1.54991 7.88966L3.78324 5.65632C3.97657 5.46299 4.29657 5.46299 4.48991 5.65632C4.68324 5.84966 4.68324 6.16966 4.48991 6.36299L2.60991 8.24299L4.48991 10.123C4.68324 10.3163 4.68324 10.6363 4.48991 10.8297C4.39657 10.9297 4.26324 10.9763 4.13657 10.9763Z" fill="#000000"/>
</svg>
