<svg width="91" height="24" viewBox="0 0 91 24" fill="none" xmlns="http://www.w3.org/2000/svg">
<path d="M34.4789 15.7571L1.894 23.3187C0.823183 23.5721 -0.0875136 22.4774 0.352823 21.4435L8.84932 1.53594C9.05948 1.03926 9.54986 0.714905 10.0903 0.714905H34.1687C34.9193 0.714905 35.5197 1.32308 35.5197 2.0833V14.4292C35.5297 15.0577 35.0894 15.6152 34.4789 15.7571Z" fill="#CC3232"/>
<path d="M15.6645 6.87775V5.59044C15.6645 5.09377 15.5745 4.67818 15.034 4.67818C14.5036 4.67818 14.4236 5.09377 14.4236 5.59044V8.03328C14.924 7.61769 15.3843 7.35415 16.0848 7.35415C17.1757 7.35415 18.0463 8.03328 18.0463 9.35099V11.0742C18.0463 13.0406 16.5052 13.74 15.2042 13.74C13.2126 13.74 12.0618 12.8683 12.0618 10.8309V5.50935C12.0618 3.77606 13.623 3.01584 15.1541 3.01584C17.0256 3.01584 18.0564 3.8166 18.0564 5.58031V6.86761H15.6645V6.87775ZM14.4236 9.81726V11.6418C14.4236 11.8851 14.6237 12.0878 15.0641 12.0878C15.4644 12.0878 15.6645 11.8851 15.6645 11.6114V9.75644C15.6645 9.45235 15.5044 9.23949 15.1041 9.23949C14.6638 9.23949 14.4236 9.48276 14.4236 9.81726Z" fill="black"/>
<path d="M22.2995 6.87775V5.59044C22.2995 5.09377 22.2095 4.67818 21.6691 4.67818C21.1386 4.67818 21.0586 5.09377 21.0586 5.59044V8.03328C21.559 7.61769 22.0193 7.35415 22.7199 7.35415C23.8107 7.35415 24.6814 8.03328 24.6814 9.35099V11.0742C24.6814 13.0406 23.1402 13.74 21.8392 13.74C19.8477 13.74 18.6968 12.8683 18.6968 10.8309V5.50935C18.6968 3.77606 20.258 3.01584 21.7891 3.01584C23.6606 3.01584 24.6914 3.8166 24.6914 5.58031V6.86761H22.2995V6.87775ZM21.0586 9.81726V11.6418C21.0586 11.8851 21.2587 12.0878 21.6991 12.0878C22.0994 12.0878 22.2995 11.8851 22.2995 11.6114V9.75644C22.2995 9.45235 22.1394 9.23949 21.7391 9.23949C21.2988 9.23949 21.0586 9.48276 21.0586 9.81726Z" fill="black"/>
<path d="M28.9347 6.87775V5.59044C28.9347 5.09377 28.8446 4.67818 28.3042 4.67818C27.7738 4.67818 27.6937 5.09377 27.6937 5.59044V8.03328C28.1941 7.61769 28.6545 7.35415 29.355 7.35415C30.4458 7.35415 31.3165 8.03328 31.3165 9.35099V11.0742C31.3165 13.0406 29.7753 13.74 28.4743 13.74C26.4828 13.74 25.3319 12.8683 25.3319 10.8309V5.50935C25.3319 3.77606 26.8931 3.01584 28.4243 3.01584C30.2957 3.01584 31.3265 3.8166 31.3265 5.58031V6.86761H28.9347V6.87775ZM27.6937 9.81726V11.6418C27.6937 11.8851 27.8939 12.0878 28.3342 12.0878C28.7345 12.0878 28.9347 11.8851 28.9347 11.6114V9.75644C28.9347 9.45235 28.7745 9.23949 28.3742 9.23949C27.9339 9.23949 27.6937 9.48276 27.6937 9.81726Z" fill="black"/>
<path d="M41.6351 18.6889H38.3883V1.06635H44.3491L46.0592 13.5929H46.1088L47.819 1.06635H53.6682V18.7015H50V3.63944H49.9505L47.6083 18.7015H44.0393L41.6847 3.63944H41.6351V18.6889Z" fill="white"/>
<path d="M64.9825 13.8942C64.9825 17.9358 62.5412 19.0404 59.852 19.0404C57.1629 19.0404 54.7216 17.9233 54.7216 13.8942V5.8611C54.7216 1.81945 57.1629 0.714905 59.852 0.714905C62.5412 0.714905 64.9825 1.83201 64.9825 5.8611V13.8942ZM58.7739 14.8356C58.7739 15.551 58.997 16.2162 59.852 16.2162C60.7071 16.2162 60.9302 15.551 60.9302 14.8356V4.91972C60.9302 4.20428 60.7071 3.53904 59.852 3.53904C58.997 3.53904 58.7739 4.20428 58.7739 4.91972V14.8356Z" fill="white"/>
<path d="M65.7136 1.06635H70.0634L71.0424 14.6598H71.0919L72.8641 1.06635H76.6562L73.7439 18.7015H68.4152L65.7136 1.06635Z" fill="white"/>
<path d="M77.3378 18.6889V1.06635H81.4025V18.7015H77.3378V18.6889Z" fill="white"/>
<path d="M82.3444 18.6889V1.06635H90.7588V3.73986H86.4091V7.60578H90.6101V10.2793H86.4091V16.028H90.7588V18.7015H82.3444V18.6889Z" fill="white"/>
</svg>
