<svg width="91" height="24" viewBox="0 0 91 24" fill="none" xmlns="http://www.w3.org/2000/svg">
<path d="M34.4789 15.5145L1.894 23.0762C0.823183 23.3296 -0.0875136 22.2349 0.352823 21.201L8.84932 1.29339C9.05948 0.796711 9.54986 0.472351 10.0903 0.472351H34.1687C34.9193 0.472351 35.5197 1.08053 35.5197 1.84074V14.1867C35.5297 14.8151 35.0894 15.3726 34.4789 15.5145Z" fill="#CC3232"/>
<path d="M15.6645 6.63522V5.34792C15.6645 4.85124 15.5745 4.43566 15.034 4.43566C14.5036 4.43566 14.4236 4.85124 14.4236 5.34792V7.79075C14.924 7.37517 15.3843 7.11163 16.0848 7.11163C17.1757 7.11163 18.0463 7.79075 18.0463 9.10847V10.8316C18.0463 12.7981 16.5052 13.4975 15.2042 13.4975C13.2126 13.4975 12.0618 12.6257 12.0618 10.5884V5.26683C12.0618 3.53353 13.623 2.77332 15.1541 2.77332C17.0256 2.77332 18.0564 3.57408 18.0564 5.33778V6.62509H15.6645V6.63522ZM14.4236 9.57473V11.3993C14.4236 11.6425 14.6237 11.8453 15.0641 11.8453C15.4644 11.8453 15.6645 11.6425 15.6645 11.3688V9.51392C15.6645 9.20983 15.5044 8.99697 15.1041 8.99697C14.6638 8.99697 14.4236 9.24024 14.4236 9.57473Z" fill="black"/>
<path d="M22.2995 6.63522V5.34792C22.2995 4.85124 22.2095 4.43566 21.6691 4.43566C21.1386 4.43566 21.0586 4.85124 21.0586 5.34792V7.79075C21.559 7.37517 22.0193 7.11163 22.7199 7.11163C23.8107 7.11163 24.6814 7.79075 24.6814 9.10847V10.8316C24.6814 12.7981 23.1402 13.4975 21.8392 13.4975C19.8477 13.4975 18.6968 12.6257 18.6968 10.5884V5.26683C18.6968 3.53353 20.258 2.77332 21.7891 2.77332C23.6606 2.77332 24.6914 3.57408 24.6914 5.33778V6.62509H22.2995V6.63522ZM21.0586 9.57473V11.3993C21.0586 11.6425 21.2587 11.8453 21.6991 11.8453C22.0994 11.8453 22.2995 11.6425 22.2995 11.3688V9.51392C22.2995 9.20983 22.1394 8.99697 21.7391 8.99697C21.2988 8.99697 21.0586 9.24024 21.0586 9.57473Z" fill="black"/>
<path d="M28.9347 6.63522V5.34792C28.9347 4.85124 28.8446 4.43566 28.3042 4.43566C27.7738 4.43566 27.6937 4.85124 27.6937 5.34792V7.79075C28.1941 7.37517 28.6545 7.11163 29.355 7.11163C30.4458 7.11163 31.3165 7.79075 31.3165 9.10847V10.8316C31.3165 12.7981 29.7753 13.4975 28.4743 13.4975C26.4828 13.4975 25.3319 12.6257 25.3319 10.5884V5.26683C25.3319 3.53353 26.8931 2.77332 28.4243 2.77332C30.2957 2.77332 31.3265 3.57408 31.3265 5.33778V6.62509H28.9347V6.63522ZM27.6937 9.57473V11.3993C27.6937 11.6425 27.8939 11.8453 28.3342 11.8453C28.7345 11.8453 28.9347 11.6425 28.9347 11.3688V9.51392C28.9347 9.20983 28.7745 8.99697 28.3742 8.99697C27.9339 8.99697 27.6937 9.24024 27.6937 9.57473Z" fill="black"/>
<path d="M41.6351 18.4464H38.3883V0.823792H44.3491L46.0592 13.3504H46.1088L47.819 0.823792H53.6682V18.4589H50V3.39689H49.9505L47.6083 18.4589H44.0393L41.6847 3.39689H41.6351V18.4464Z" fill="black"/>
<path d="M64.9825 13.6516C64.9825 17.6933 62.5412 18.7978 59.852 18.7978C57.1629 18.7978 54.7216 17.6807 54.7216 13.6516V5.61854C54.7216 1.5769 57.1629 0.472351 59.852 0.472351C62.5412 0.472351 64.9825 1.58945 64.9825 5.61854V13.6516ZM58.7739 14.593C58.7739 15.3085 58.997 15.9737 59.852 15.9737C60.7071 15.9737 60.9302 15.3085 60.9302 14.593V4.67717C60.9302 3.96172 60.7071 3.29648 59.852 3.29648C58.997 3.29648 58.7739 3.96172 58.7739 4.67717V14.593Z" fill="black"/>
<path d="M65.7136 0.823792H70.0634L71.0424 14.4173H71.0919L72.8641 0.823792H76.6562L73.7439 18.4589H68.4152L65.7136 0.823792Z" fill="black"/>
<path d="M77.3378 18.4464V0.823792H81.4025V18.4589H77.3378V18.4464Z" fill="black"/>
<path d="M82.3444 18.4464V0.823792H90.7588V3.4973H86.4091V7.36322H90.6101V10.0367H86.4091V15.7854H90.7588V18.4589H82.3444V18.4464Z" fill="black"/>
</svg>
