<svg width="17" height="17" viewBox="0 0 17 17" fill="none" xmlns="http://www.w3.org/2000/svg">
<path d="M8.75443 15.9019C8.64109 15.9019 8.52776 15.9019 8.41443 15.8952C4.68109 15.7285 1.56109 12.7219 1.30109 9.05518C1.07443 5.90852 2.89443 2.96852 5.82776 1.73518C6.66109 1.38852 7.10109 1.65518 7.28776 1.84852C7.47443 2.03518 7.73443 2.46852 7.38776 3.26185C7.08109 3.96852 6.92776 4.72185 6.93443 5.49518C6.94776 8.44852 9.40109 10.9552 12.3944 11.0752C12.8278 11.0952 13.2544 11.0619 13.6678 10.9885C14.5478 10.8285 14.9144 11.1819 15.0544 11.4085C15.1944 11.6352 15.3544 12.1219 14.8211 12.8419C13.4078 14.7752 11.1611 15.9019 8.75443 15.9019ZM2.29443 8.98185C2.52109 12.1552 5.22776 14.7552 8.45443 14.8952C10.6478 15.0019 12.7278 14.0019 14.0078 12.2552C14.1078 12.1152 14.1544 12.0152 14.1744 11.9619C14.1144 11.9552 14.0078 11.9485 13.8411 11.9819C13.3544 12.0685 12.8478 12.1019 12.3478 12.0819C8.82776 11.9419 5.94776 8.98852 5.92776 5.50852C5.92776 4.58852 6.10776 3.70185 6.47443 2.86852C6.54109 2.72185 6.55443 2.62185 6.56109 2.56852C6.50109 2.56852 6.39443 2.58185 6.22109 2.65518C3.68109 3.72185 2.10776 6.26852 2.29443 8.98185Z" fill="#000000"/>
</svg>
