<svg width="25" height="25" viewBox="0 0 25 25" fill="none" xmlns="http://www.w3.org/2000/svg">
<path d="M12.506 21.4301C10.176 21.4301 7.84595 21.0601 5.63595 20.3201C4.79595 20.0301 4.15595 19.4401 3.87595 18.6701C3.58595 17.9001 3.68595 17.0501 4.14595 16.2901L5.29595 14.3801C5.53595 13.9801 5.75595 13.1801 5.75595 12.7101V9.82007C5.75595 6.10007 8.78595 3.07007 12.506 3.07007C16.226 3.07007 19.256 6.10007 19.256 9.82007V12.7101C19.256 13.1701 19.476 13.9801 19.716 14.3901L20.856 16.2901C21.286 17.0101 21.366 17.8801 21.076 18.6701C20.786 19.4601 20.156 20.0601 19.366 20.3201C17.166 21.0601 14.836 21.4301 12.506 21.4301ZM12.506 4.57007C9.61595 4.57007 7.25595 6.92007 7.25595 9.82007V12.7101C7.25595 13.4401 6.95595 14.5201 6.58595 15.1501L5.43595 17.0601C5.21595 17.4301 5.15595 17.8201 5.28595 18.1501C5.40595 18.4901 5.70595 18.7501 6.11595 18.8901C10.296 20.2901 14.726 20.2901 18.906 18.8901C19.266 18.7701 19.546 18.5001 19.676 18.1401C19.806 17.7801 19.776 17.3901 19.576 17.0601L18.426 15.1501C18.046 14.5001 17.756 13.4301 17.756 12.7001V9.82007C17.756 6.92007 15.406 4.57007 12.506 4.57007Z" fill="black"/>
<path d="M14.366 4.84008C14.296 4.84008 14.226 4.83008 14.156 4.81008C13.866 4.73008 13.586 4.67008 13.316 4.63008C12.466 4.52008 11.646 4.58008 10.876 4.81008C10.596 4.90008 10.296 4.81008 10.106 4.60008C9.91595 4.39008 9.85595 4.09008 9.96595 3.82008C10.376 2.77008 11.376 2.08008 12.516 2.08008C13.656 2.08008 14.656 2.76008 15.066 3.82008C15.166 4.09008 15.116 4.39008 14.926 4.60008C14.776 4.76008 14.566 4.84008 14.366 4.84008Z" fill="black"/>
<path d="M12.506 23.7101C11.516 23.7101 10.556 23.3101 9.85598 22.6101C9.15598 21.9101 8.75598 20.9501 8.75598 19.9601H10.256C10.256 20.5501 10.496 21.1301 10.916 21.5501C11.336 21.9701 11.916 22.2101 12.506 22.2101C13.746 22.2101 14.756 21.2001 14.756 19.9601H16.256C16.256 22.0301 14.576 23.7101 12.506 23.7101Z" fill="black"/>
</svg>
