<svg width="16" height="16" viewBox="0 0 16 16" fill="none" xmlns="http://www.w3.org/2000/svg">
<path d="M4.9915 13.6675C4.49775 13.6675 4.029 13.5488 3.6165 13.3113C2.6415 12.7488 2.104 11.605 2.104 10.0988V5.64255C2.104 4.13005 2.6415 2.99255 3.6165 2.43005C4.5915 1.86755 5.84775 1.9738 7.16025 2.73005L11.0165 4.95505C12.3228 5.7113 13.0478 6.7488 13.0478 7.8738C13.0478 8.9988 12.329 10.0363 11.0165 10.7925L7.16025 13.0175C6.404 13.4488 5.6665 13.6675 4.9915 13.6675ZM4.9915 3.00505C4.654 3.00505 4.354 3.08005 4.08525 3.2363C3.41025 3.6238 3.0415 4.48005 3.0415 5.64255V10.0925C3.0415 11.255 3.41025 12.105 4.08525 12.4988C4.76025 12.8925 5.68525 12.78 6.6915 12.1988L10.5478 9.9738C11.554 9.39255 12.1103 8.6488 12.1103 7.86755C12.1103 7.0863 11.554 6.34255 10.5478 5.7613L6.6915 3.5363C6.079 3.1863 5.504 3.00505 4.9915 3.00505Z" fill="#ECEBFF"/>
</svg>
