<svg width="17" height="17" viewBox="0 0 17 17" fill="none" xmlns="http://www.w3.org/2000/svg">
<path d="M6.34303 8.47907C6.32303 8.47907 6.3097 8.47907 6.2897 8.47907C6.25637 8.4724 6.2097 8.4724 6.1697 8.47907C4.23637 8.41907 2.77637 6.89907 2.77637 5.02574C2.77637 3.11907 4.3297 1.56573 6.23637 1.56573C8.14303 1.56573 9.69637 3.11907 9.69637 5.02574C9.6897 6.89907 8.22303 8.41907 6.36303 8.47907C6.35637 8.47907 6.3497 8.47907 6.34303 8.47907ZM6.23637 2.56573C4.88303 2.56573 3.77637 3.6724 3.77637 5.02574C3.77637 6.35907 4.81637 7.4324 6.14303 7.47907C6.18303 7.4724 6.2697 7.4724 6.35637 7.47907C7.66303 7.41907 8.6897 6.34574 8.69637 5.02574C8.69637 3.6724 7.5897 2.56573 6.23637 2.56573Z" fill="#000000"/>
<path d="M11.263 8.56571C11.243 8.56571 11.223 8.56571 11.203 8.55905C10.9297 8.58571 10.6497 8.39238 10.623 8.11905C10.5964 7.84571 10.763 7.59905 11.0364 7.56571C11.1164 7.55905 11.203 7.55905 11.2764 7.55905C12.2497 7.50571 13.0097 6.70571 13.0097 5.72571C13.0097 4.71238 12.1897 3.89238 11.1764 3.89238C10.903 3.89905 10.6764 3.67238 10.6764 3.39905C10.6764 3.12571 10.903 2.89905 11.1764 2.89905C12.7364 2.89905 14.0097 4.17238 14.0097 5.73238C14.0097 7.26571 12.8097 8.50571 11.283 8.56571C11.2764 8.56571 11.2697 8.56571 11.263 8.56571Z" fill="#000000"/>
<path d="M6.34965 15.7657C5.04298 15.7657 3.72965 15.4324 2.73631 14.7657C1.80965 14.1524 1.30298 13.3124 1.30298 12.399C1.30298 11.4857 1.80965 10.639 2.73631 10.019C4.73631 8.69238 7.97631 8.69238 9.96298 10.019C10.883 10.6324 11.3963 11.4724 11.3963 12.3857C11.3963 13.299 10.8896 14.1457 9.96298 14.7657C8.96298 15.4324 7.65631 15.7657 6.34965 15.7657ZM3.28965 10.859C2.64965 11.2857 2.30298 11.8324 2.30298 12.4057C2.30298 12.9724 2.65631 13.519 3.28965 13.939C4.94965 15.0524 7.74965 15.0524 9.40965 13.939C10.0496 13.5124 10.3963 12.9657 10.3963 12.3924C10.3963 11.8257 10.043 11.279 9.40965 10.859C7.74965 9.75238 4.94965 9.75238 3.28965 10.859Z" fill="#000000"/>
<path d="M12.463 14.5657C12.2296 14.5657 12.023 14.4057 11.9763 14.1657C11.923 13.8924 12.0963 13.6324 12.363 13.5724C12.783 13.4857 13.1696 13.3191 13.4696 13.0857C13.8496 12.7991 14.0563 12.4391 14.0563 12.0591C14.0563 11.6791 13.8496 11.3191 13.4763 11.0391C13.183 10.8124 12.8163 10.6524 12.383 10.5524C12.1163 10.4924 11.943 10.2257 12.003 9.9524C12.063 9.68574 12.3296 9.5124 12.603 9.5724C13.1763 9.69907 13.6763 9.92574 14.083 10.2391C14.703 10.7057 15.0563 11.3657 15.0563 12.0591C15.0563 12.7524 14.6963 13.4124 14.0763 13.8857C13.663 14.2057 13.143 14.4391 12.5696 14.5524C12.5296 14.5657 12.4963 14.5657 12.463 14.5657Z" fill="#000000"/>
</svg>
