<svg width="21" height="22" viewBox="0 0 21 22" fill="none" xmlns="http://www.w3.org/2000/svg">
<path d="M10.0625 19.9375C5.11875 19.9375 1.09375 15.7208 1.09375 10.5416C1.09375 5.36248 5.11875 1.14581 10.0625 1.14581C15.0063 1.14581 19.0312 5.36248 19.0312 10.5416C19.0312 15.7208 15.0063 19.9375 10.0625 19.9375ZM10.0625 2.52081C5.83625 2.52081 2.40625 6.12331 2.40625 10.5416C2.40625 14.96 5.83625 18.5625 10.0625 18.5625C14.2887 18.5625 17.7188 14.96 17.7188 10.5416C17.7188 6.12331 14.2887 2.52081 10.0625 2.52081Z" fill="black"/>
<path d="M19.25 20.8542C19.0838 20.8542 18.9175 20.79 18.7863 20.6525L17.0363 18.8192C16.7825 18.5533 16.7825 18.1133 17.0363 17.8475C17.29 17.5817 17.71 17.5817 17.9638 17.8475L19.7138 19.6808C19.9675 19.9467 19.9675 20.3867 19.7138 20.6525C19.5825 20.79 19.4163 20.8542 19.25 20.8542Z" fill="black"/>
</svg>
