<svg width="17" height="16" viewBox="0 0 17 16" fill="none" xmlns="http://www.w3.org/2000/svg">
<path d="M8.23657 10.0656C6.85657 10.0656 5.73657 9.01555 5.73657 7.7218C5.73657 6.42805 6.85657 5.37805 8.23657 5.37805C9.61657 5.37805 10.7366 6.42805 10.7366 7.7218C10.7366 9.01555 9.61657 10.0656 8.23657 10.0656ZM8.23657 6.31555C7.40991 6.31555 6.73657 6.9468 6.73657 7.7218C6.73657 8.4968 7.40991 9.12805 8.23657 9.12805C9.06324 9.12805 9.73657 8.4968 9.73657 7.7218C9.73657 6.9468 9.06324 6.31555 8.23657 6.31555Z" fill="#000000"/>
<path d="M10.3766 14.0905C10.2366 14.0905 10.0966 14.0718 9.95661 14.0405C9.54328 13.9343 9.19661 13.6905 8.97661 13.3468L8.89661 13.2218C8.50328 12.5843 7.96328 12.5843 7.56995 13.2218L7.49661 13.3405C7.27661 13.6905 6.92995 13.9405 6.51661 14.0405C6.09661 14.1468 5.66328 14.0905 5.29661 13.8843L4.14995 13.2655C3.74328 13.0468 3.44995 12.6905 3.32328 12.2593C3.20328 11.828 3.26328 11.3843 3.49661 11.003C3.68995 10.6843 3.74328 10.3968 3.62995 10.2155C3.51661 10.0343 3.22995 9.92805 2.83661 9.92805C1.86328 9.92805 1.06995 9.1843 1.06995 8.2718V7.1718C1.06995 6.2593 1.86328 5.51555 2.83661 5.51555C3.22995 5.51555 3.51661 5.4093 3.62995 5.22805C3.74328 5.0468 3.69661 4.7593 3.49661 4.44055C3.26328 4.0593 3.20328 3.6093 3.32328 3.1843C3.44328 2.75305 3.73661 2.3968 4.14995 2.17805L5.30328 1.5593C6.05661 1.14055 7.04995 1.3843 7.50328 2.10305L7.58328 2.22805C7.97661 2.86555 8.51661 2.86555 8.90995 2.22805L8.98328 2.1093C9.43661 1.3843 10.4299 1.14055 11.1899 1.56555L12.3366 2.1843C12.7433 2.40305 13.0366 2.7593 13.1633 3.19055C13.2833 3.6218 13.2233 4.06555 12.9899 4.4468C12.7966 4.76555 12.7433 5.05305 12.8566 5.2343C12.9699 5.41555 13.2566 5.5218 13.6499 5.5218C14.6233 5.5218 15.4166 6.26555 15.4166 7.17805V8.27805C15.4166 9.19055 14.6233 9.9343 13.6499 9.9343C13.2566 9.9343 12.9699 10.0405 12.8566 10.2218C12.7433 10.403 12.7899 10.6905 12.9899 11.0093C13.2233 11.3905 13.2899 11.8405 13.1633 12.2655C13.0433 12.6968 12.7499 13.053 12.3366 13.2718L11.1833 13.8905C10.9299 14.0218 10.6566 14.0905 10.3766 14.0905ZM8.23661 11.778C8.82995 11.778 9.38328 12.128 9.76328 12.7468L9.83661 12.8655C9.91661 12.9968 10.0499 13.0905 10.2099 13.128C10.3699 13.1655 10.5299 13.1468 10.6633 13.0718L11.8166 12.4468C11.9899 12.353 12.1233 12.1968 12.1766 12.0093C12.2299 11.8218 12.2033 11.628 12.1033 11.4655C11.7233 10.853 11.6766 10.2218 11.9699 9.74055C12.2633 9.2593 12.8699 8.9843 13.6299 8.9843C14.0566 8.9843 14.3966 8.66555 14.3966 8.26555V7.16555C14.3966 6.7718 14.0566 6.4468 13.6299 6.4468C12.8699 6.4468 12.2633 6.1718 11.9699 5.69055C11.6766 5.2093 11.7233 4.57805 12.1033 3.96555C12.2033 3.80305 12.2299 3.6093 12.1766 3.4218C12.1233 3.2343 11.9966 3.0843 11.8233 2.9843L10.6699 2.36555C10.3833 2.20305 10.0033 2.2968 9.82995 2.5718L9.75661 2.69055C9.37661 3.3093 8.82328 3.6593 8.22995 3.6593C7.63661 3.6593 7.08328 3.3093 6.70328 2.69055L6.62995 2.56555C6.46328 2.30305 6.08995 2.2093 5.80328 2.36555L4.64995 2.99055C4.47661 3.0843 4.34328 3.24055 4.28995 3.42805C4.23661 3.61555 4.26328 3.8093 4.36328 3.9718C4.74328 4.5843 4.78995 5.21555 4.49661 5.6968C4.20328 6.17805 3.59661 6.45305 2.83661 6.45305C2.40995 6.45305 2.06995 6.7718 2.06995 7.1718V8.2718C2.06995 8.66555 2.40995 8.99055 2.83661 8.99055C3.59661 8.99055 4.20328 9.26555 4.49661 9.7468C4.78995 10.228 4.74328 10.8593 4.36328 11.4718C4.26328 11.6343 4.23661 11.828 4.28995 12.0155C4.34328 12.203 4.46995 12.353 4.64328 12.453L5.79661 13.0718C5.93661 13.153 6.10328 13.1718 6.25661 13.1343C6.41661 13.0968 6.54995 12.9968 6.63661 12.8655L6.70995 12.7468C7.08995 12.1343 7.64328 11.778 8.23661 11.778Z" fill="#000000"/>
</svg>
