<svg width="19" height="17" viewBox="0 0 19 17" fill="none" xmlns="http://www.w3.org/2000/svg">
<path d="M18.1457 8.34157L11.0125 1.20839C10.8878 1.08373 10.7289 0.998838 10.556 0.964449C10.3831 0.930061 10.2038 0.947718 10.0409 1.01519C9.878 1.08266 9.73876 1.19692 9.64078 1.34351C9.5428 1.49011 9.49049 1.66246 9.49045 1.83878V4.99967C7.05473 5.22508 4.79078 6.35129 3.14164 8.15791C1.49251 9.96454 0.576892 12.3215 0.573975 14.7677V16.1051C0.574115 16.2902 0.631851 16.4707 0.739174 16.6215C0.846496 16.7723 0.998086 16.8859 1.17292 16.9467C1.34775 17.0075 1.53715 17.0123 1.71486 16.9606C1.89257 16.9088 2.04978 16.8031 2.16467 16.658C3.03822 15.6192 4.11003 14.7649 5.31749 14.145C6.52495 13.5251 7.84384 13.1521 9.1971 13.0477C9.24168 13.0423 9.35314 13.0334 9.49045 13.0245V16.1051C9.49049 16.2815 9.5428 16.4538 9.64078 16.6004C9.73876 16.747 9.878 16.8613 10.0409 16.9287C10.2038 16.9962 10.3831 17.0139 10.556 16.9795C10.7289 16.9451 10.8878 16.8602 11.0125 16.7355L18.1457 9.60236C18.3128 9.43515 18.4067 9.2084 18.4067 8.97196C18.4067 8.73553 18.3128 8.50878 18.1457 8.34157ZM11.2737 13.9527V12.0927C11.2737 11.8562 11.1798 11.6295 11.0126 11.4622C10.8454 11.295 10.6186 11.2011 10.3821 11.2011C10.1547 11.2011 9.22652 11.2457 8.98934 11.2769C6.58623 11.4983 4.29876 12.4113 2.40364 13.9054C2.61874 11.9389 3.55167 10.1207 5.02379 8.79913C6.49591 7.47754 8.40378 6.74538 10.3821 6.74284C10.6186 6.74284 10.8454 6.6489 11.0126 6.48169C11.1798 6.31447 11.2737 6.08768 11.2737 5.8512V3.99122L16.2545 8.97196L11.2737 13.9527Z" fill="#ECEBFF"/>
</svg>
