<svg width="25" height="25" viewBox="0 0 25 25" fill="none" xmlns="http://www.w3.org/2000/svg">
<path d="M11.9782 22.6563C6.09275 22.6563 1.30109 17.8646 1.30109 11.9792C1.30109 6.09376 6.09275 1.30209 11.9782 1.30209C17.8636 1.30209 22.6553 6.09376 22.6553 11.9792C22.6553 17.8646 17.8636 22.6563 11.9782 22.6563ZM11.9782 2.86459C6.94692 2.86459 2.86359 6.95834 2.86359 11.9792C2.86359 17 6.94692 21.0938 11.9782 21.0938C17.0094 21.0938 21.0928 17 21.0928 11.9792C21.0928 6.95834 17.0094 2.86459 11.9782 2.86459Z" fill="#899098"/>
<path d="M22.9157 23.6979C22.7178 23.6979 22.5199 23.625 22.3636 23.4688L20.2803 21.3854C19.9782 21.0833 19.9782 20.5833 20.2803 20.2812C20.5824 19.9792 21.0824 19.9792 21.3844 20.2812L23.4678 22.3646C23.7699 22.6667 23.7699 23.1667 23.4678 23.4688C23.3115 23.625 23.1136 23.6979 22.9157 23.6979Z" fill="#899098"/>
</svg>
