<svg width="11" height="11" viewBox="0 0 11 11" fill="none" xmlns="http://www.w3.org/2000/svg">
<path d="M7.43112 9.81315C7.21028 9.81315 6.92695 9.74231 6.57278 9.53398L5.32695 8.79648C5.19778 8.72148 4.94778 8.72148 4.82278 8.79648L3.57278 9.53398C2.83528 9.97148 2.40195 9.79648 2.20612 9.65481C2.01445 9.51315 1.71445 9.15065 1.91028 8.31731L2.20612 7.03815C2.23945 6.90481 2.17278 6.67565 2.07278 6.57565L1.03945 5.54231C0.522783 5.02565 0.564449 4.58398 0.635283 4.36731C0.706116 4.15065 0.931116 3.76731 1.64778 3.64648L2.97695 3.42565C3.10195 3.40481 3.28112 3.27148 3.33528 3.15898L4.07278 1.68815C4.40612 1.01731 4.84362 0.917313 5.07278 0.917313C5.30195 0.917313 5.73945 1.01731 6.07278 1.68815L6.80612 3.15481C6.86445 3.26731 7.04362 3.40065 7.16862 3.42148L8.49778 3.64231C9.21862 3.76315 9.44362 4.14648 9.51028 4.36315C9.57695 4.57981 9.61862 5.02148 9.10612 5.53815L8.07278 6.57565C7.97278 6.67565 7.91028 6.90065 7.93945 7.03815L8.23528 8.31731C8.42695 9.15065 8.13112 9.51315 7.93945 9.65481C7.83528 9.72981 7.66862 9.81315 7.43112 9.81315ZM5.07278 8.11315C5.27695 8.11315 5.48112 8.16315 5.64362 8.25898L6.88945 8.99648C7.25195 9.21315 7.48112 9.21315 7.56862 9.15065C7.65612 9.08815 7.71862 8.86731 7.62695 8.45898L7.33112 7.17981C7.25195 6.83398 7.38112 6.38815 7.63112 6.13398L8.66445 5.10065C8.86862 4.89648 8.96028 4.69648 8.91862 4.55898C8.87278 4.42148 8.68112 4.30898 8.39778 4.26315L7.06862 4.04231C6.74778 3.98815 6.39778 3.72981 6.25195 3.43815L5.51862 1.97148C5.38528 1.70481 5.21862 1.54648 5.07278 1.54648C4.92695 1.54648 4.76028 1.70481 4.63112 1.97148L3.89362 3.43815C3.74778 3.72981 3.39778 3.98815 3.07695 4.04231L1.75195 4.26315C1.46862 4.30898 1.27695 4.42148 1.23112 4.55898C1.18528 4.69648 1.28112 4.90065 1.48528 5.10065L2.51862 6.13398C2.76862 6.38398 2.89778 6.83398 2.81862 7.17981L2.52278 8.45898C2.42695 8.87148 2.49362 9.08815 2.58112 9.15065C2.66862 9.21315 2.89362 9.20898 3.26028 8.99648L4.50612 8.25898C4.66445 8.16315 4.86862 8.11315 5.07278 8.11315Z" fill="#CC3232"/>
</svg>
