<svg width="11" height="10" viewBox="0 0 11 10" fill="none" xmlns="http://www.w3.org/2000/svg">
<path fill-rule="evenodd" clip-rule="evenodd" d="M10.4219 0.356945C10.6405 0.575466 10.6405 0.929757 10.4219 1.14828L1.74501 9.82513C1.52649 10.0436 1.1722 10.0436 0.953683 9.82513C0.735164 9.60661 0.735166 9.25232 0.953686 9.0338L9.63061 0.356942C9.84913 0.138424 10.2034 0.138425 10.4219 0.356945Z" fill="#CC3232"/>
<path fill-rule="evenodd" clip-rule="evenodd" d="M10.4218 9.82514C10.2033 10.0437 9.84899 10.0437 9.63047 9.82513L0.953618 1.14821C0.735099 0.92969 0.7351 0.5754 0.953621 0.356881C1.17214 0.138362 1.52643 0.138364 1.74495 0.356884L10.4218 9.03381C10.6403 9.25233 10.6403 9.60662 10.4218 9.82514Z" fill="#CC3232"/>
</svg>
