<svg width="66" height="24" viewBox="0 0 66 24" fill="none" xmlns="http://www.w3.org/2000/svg">
<path d="M4.0703 23.2846H0.0266724V1.33728H7.45027L9.58012 16.938H9.64185L11.7717 1.33728H19.0564V23.3002H14.488V4.54184H14.4263L11.5093 23.3002H7.06443L4.13203 4.54184H4.0703V23.2846Z" fill="#000000"/>
<path d="M33.1474 17.3132C33.1474 22.3467 30.1069 23.7223 26.7578 23.7223C23.4087 23.7223 20.3683 22.331 20.3683 17.3132V7.30871C20.3683 2.27521 23.4087 0.899597 26.7578 0.899597C30.1069 0.899597 33.1474 2.29084 33.1474 7.30871V17.3132ZM25.4151 18.4856C25.4151 19.3766 25.6929 20.2051 26.7578 20.2051C27.8227 20.2051 28.1006 19.3766 28.1006 18.4856V6.13631C28.1006 5.24529 27.8227 4.41679 26.7578 4.41679C25.6929 4.41679 25.4151 5.24529 25.4151 6.13631V18.4856Z" fill="#000000"/>
<path d="M34.0579 1.33728H39.4751L40.6944 18.2667H40.7561L42.9631 1.33728H47.6859L44.0589 23.3002H37.4225L34.0579 1.33728Z" fill="#000000"/>
<path d="M48.5347 23.2846V1.33728H53.597V23.3002H48.5347V23.2846Z" fill="#000000"/>
<path d="M54.7699 23.2846V1.33728H65.2494V4.66689H59.8321V9.48154H65.0642V12.8112H59.8321V19.9706H65.2494V23.3002H54.7699V23.2846Z" fill="#000000"/>
</svg>
