<svg width="6" height="12" viewBox="0 0 6 12" fill="none" xmlns="http://www.w3.org/2000/svg">
<path d="M1.1695 11.0538C1.05867 11.0538 0.947834 11.013 0.860334 10.9255C0.691168 10.7563 0.691168 10.4763 0.860334 10.3071L4.66367 6.50379C4.94367 6.22379 4.94367 5.76879 4.66367 5.48879L0.860334 1.68545C0.691168 1.51629 0.691168 1.23629 0.860334 1.06712C1.0295 0.897955 1.3095 0.897955 1.47867 1.06712L5.282 4.87045C5.5795 5.16795 5.74867 5.57046 5.74867 5.99629C5.74867 6.42212 5.58533 6.82462 5.282 7.12212L1.47867 10.9255C1.39117 11.0071 1.28033 11.0538 1.1695 11.0538Z" fill="#000000"/>
</svg>
